# xmcd CD database file
#
# Track frame offsets:
#	150
#	20100
#	44400
#	61800
#	76500
#	94200
#	127050
#	145800
#	172350
#	193500
#	236850
#	263400
#	289650
#	329250
#
# Disc length: 4768 seconds
#
# Revision: 3
# Processed by: cddbd v1.5.2PL0 Copyright (c) Steve Scherf et al.
# Submitted via: CDex 1.51
#
DISCID=ca129e0e
DTITLE=Sonny Stitt - Move On Over... - At The D.J. Lounge
DYEAR=1963
DGENRE=Jazz
TTITLE0=Stormy Weather  . . . . . . . . . . . .  { Move On Over..., Chicago 7 Juin 1963 }
TTITLE1=A Natural Fox
TTITLE2=Love Letters
TTITLE3=Move On Over
TTITLE4=My Mother's Eyes
TTITLE5=The Lady Is A Tramp
TTITLE6=Dexter's Deck
TTITLE7=Shut The Back Door
TTITLE8=I'm In The Mood For Love  . . . . . .  { At The D.J. Lounge - Chicago, Juin 1961}
TTITLE9=McKie's
TTITLE10=It All Depends On You
TTITLE11=Blue Moon
TTITLE12=Free Chicken
TTITLE13=Jay Tee
EXTD=YEAR: 1963
EXTT0=
EXTT1=
EXTT2=
EXTT3=
EXTT4=
EXTT5=
EXTT6=
EXTT7=
EXTT8=
EXTT9=
EXTT10=
EXTT11=
EXTT12=
EXTT13=
PLAYORDER=
